<?xml version="1.0" encoding="utf-8"?>
<svg version="1.1" xmlns:xlink="http://www.w3.org/1999/xlink" width="40px" height="40px" xmlns="http://www.w3.org/2000/svg">
  <g transform="matrix(1 0 0 1 -28 -20 )">
    <path d="M 20.0282096790541 0.0908346875000007  C 27.6746927873283 3.03885257646775  33.0232191612694 10.9359532426176  32.7977238412524 18.95490934775  C 32.728186633441 21.4277580839059  32.1285856995548 23.9121947096639  30.9028501858108 26.2666604166667  L 18.2117857939189 13.1570174479167  L 23.0563491722973 8.15878125  L 20.0264878716216 5.05867479166667  C 18.3546956587838 6.74213755208333  15.6977470777027 7.10106088541667  13.9058842736486 6.35885578125  L 4.25989386824324 16.2823359895833  L 9.72261581081081 21.87766734375  L 13.3638497466216 18.14918484375  L 26.0506602702703 31.2370716666667  C 19.8421534290541 34.7421847916667  11.2362551182432 33.6375691145833  4.88480800675676 26.85416828125  L 1.80928847972973 30.0064477083333  C 2.73101152027027 31.3196719270833  3.50305903716217 32.50947984375  4.46283398648649 33.5071888020833  C 4.37912385135135 33.61060828125  4.11528246621622 33.8331136458333  4.1102183445946 33.83920328125  C 3.9486927195946 33.8122423958333  3.75760270270271 33.7479630729167  3.58763010135135 33.7479630729167  C 1.95135773648649 33.7479630729167  0.629649104729734 35.2123764583333  0.629649104729734 36.89587046875  C 0.629649104729734 38.5767100520833  1.96404844594595 39.9481655729167  3.60031067567568 39.9481655729167  C 5.23744391891892 39.9481655729167  6.63776815878379 38.56453078125  6.63776815878379 36.88197359375  C 6.63776815878379 36.6855442708333  6.59465212837838 36.5064990104167  6.56165420608108 36.3213641145833  L 7.03436076013514 35.8442396875  C 11.3486902756277 38.8359554392816  15.9077456771525 40.2802949143448  20.6923363905838 39.8685593316378  C 24.0055897379075 39.5834389568089  27.4269950101455 38.4082668708471  30.9501795945946 36.2405334895833  L 34.5060018581081 39.9099102604167  L 39.3733841891892 34.9733718229167  L 35.7947227027027 31.25533015625  C 46.0648270777027 15.341963125  32.3708413513514 -0.28982390625  20.0282096790541 0.0908346875000007  Z " fill-rule="nonzero" fill="#ffffff" stroke="none" transform="matrix(1 0 0 1 28 20 )" />
  </g>
</svg>