<?xml version="1.0" encoding="utf-8"?>
<svg version="1.1" xmlns:xlink="http://www.w3.org/1999/xlink" width="20px" height="20px" xmlns="http://www.w3.org/2000/svg">
  <g transform="matrix(1 0 0 1 -1560 -34 )">
    <path d="M 15.4931640625 7.747802734375  C 15.4931640625 3.970703125  13.043212890625 0.90771484375  10.02197265625 0.90771484375  C 7.000732421875 0.90771484375  4.55078125 3.970703125  4.55078125 7.747802734375  C 4.55078125 11.52490234375  7.000732421875 14.587890625  10.02197265625 14.587890625  C 13.043212890625 14.587890625  15.4931640625 11.52490234375  15.4931640625 7.747802734375  Z M 14.581298828125 7.74560546875  C 14.581298828125 11.012939453125  12.537841796875 13.673828125  10.02197265625 13.673828125  C 7.506103515625 13.673828125  5.462646484375 11.012939453125  5.462646484375 7.74560546875  C 5.462646484375 4.478271484375  7.506103515625 1.8173828125  10.02197265625 1.8173828125  C 12.537841796875 1.8173828125  14.581298828125 4.478271484375  14.581298828125 7.74560546875  Z M 19.142822265625 17.3212890625  C 19.142822265625 15.763427734375  17.8046875 15.530517578125  14.005615234375 13.79248046875  C 13.763916015625 14.027587890625  13.504638671875 14.242919921875  13.22998046875 14.4384765625  C 14.095703125 14.8427734375  14.8603515625 15.178955078125  15.5107421875 15.46240234375  C 17.927734375 16.51708984375  18.23095703125 16.7236328125  18.23095703125 17.3212890625  C 18.2001953125 17.811279296875  17.80908203125 18.202392578125  17.319091796875 18  L 2.72705078125 18  C 2.237060546875 18.202392578125  1.845947265625 17.811279296875  1.815185546875 17.3212890625  C 1.815185546875 16.7236328125  2.118408203125 16.514892578125  4.535400390625 15.46240234375  C 5.185791015625 15.178955078125  5.9482421875 14.8427734375  6.816162109375 14.4384765625  C 6.54150390625 14.242919921875  6.2822265625 14.027587890625  6.04052734375 13.79248046875  C 2.241455078125 15.530517578125  0.9033203125 15.763427734375  0.9033203125 17.3212890625  C 0.936279296875 18.314453125  1.73388671875 19.112060546875  2.72705078125 19  L 17.319091796875 19  C 18.312255859375 19.112060546875  19.10986328125 18.314453125  19.142822265625 17.3212890625  Z " fill-rule="nonzero" fill="#ffffff" stroke="none" transform="matrix(1 0 0 1 1560 34 )" />
  </g>
</svg>