<?xml version="1.0" encoding="utf-8"?>
<svg version="1.1" xmlns:xlink="http://www.w3.org/1999/xlink" width="20px" height="20px" xmlns="http://www.w3.org/2000/svg">
  <g transform="matrix(1 0 0 1 -202 -34 )">
    <path d="M 8.36029052734375 6.6547890625  C 8.3590311630839 5.37015267747433  7.54574864064506 4.32915104875261  6.54212646484375 4.3275390625  L 4.3334228515625 4.3275390625  C 3.3298006757612 4.32915104875261  2.51651815332235 5.37015267747433  2.5152587890625 6.6547890625  L 2.5152587890625 17.7443359375  L 1.0784912109375 17.7443359375  C 0.627636198181953 17.7443359375  0.26214599609375 18.2121633961729  0.26214599609375 18.7892578125  C 0.26214599609375 19.3663522288271  0.627636198181953 19.8341796875  1.0784912109375 19.8341796875  L 18.8748168945313 19.8341796875  C 19.3256719072868 19.8341796875  19.691162109375 19.3663522288271  19.691162109375 18.7892578125  C 19.691162109375 18.2121633961729  19.3256719072868 17.7443359375  18.8748168945313 17.7443359375  L 17.6666259765625 17.7443359375  L 17.6666259765625 2.3915078125  C 17.6653666123027 1.10687142747433  16.8520840898638 0.0658697987526125  15.8484619140625 0.0642578125  L 12.105029296875 0.0642578125000028  C 11.1014071210737 0.0658697987526125  10.2881245986349 1.10687142747433  10 2.3915078125  L 10 17.7443359375  L 8.36029052734375 17.7443359375  L 8.36029052734375 6.6547890625  Z M 7 17.7443359375  L 4.14794921875 17.7443359375  L 4.14794921875 6.6547890625  C 4.14812895527979 6.5237686245463  4.23106313441117 6.41761287525813  4.3334228515625 6.4173828125  L 6.54212646484375 6.4173828125  C 6.64448618199508 6.41761287525813  6.72742036112646 6.5237686245463  7 6.6547890625  L 7 17.7443359375  Z M 12 17.7443359375  L 12 2.3915078125  C 11.9197354005923 2.2604873745463  12.0026695797237 2.15433162525814  12.105029296875 2.1541015625  L 15.8484619140625 2.1541015625  C 15.9508216312138 2.15433162525814  16.0337558103452 2.2604873745463  16 2.3915078125  L 16 17.7443359375  L 12 17.7443359375  Z " fill-rule="nonzero" fill="#ffffff" stroke="none" transform="matrix(1 0 0 1 202 34 )" />
  </g>
</svg>