<?xml version="1.0" encoding="utf-8"?>
<svg version="1.1" xmlns:xlink="http://www.w3.org/1999/xlink" width="27px" height="25px" xmlns="http://www.w3.org/2000/svg">
  <g transform="matrix(1 0 0 1 -13 -31 )">
    <path d="M 21.5315612117992 6.85125631893383  C 21.5226334372128 6.88516716452206  21.5124359274472 6.91911473891314  21.5015242158778 6.95306227740119  C 21.4982308766085 6.96287181181066  21.4949374985639 6.9726078527114  21.4912870390051 6.98300522748162  C 21.4833512522978 7.00747393439798  21.4744234777114 7.03190591251149  21.4652179558249 7.05604395249311  C 21.4615674962661 7.06611066032859  21.4576392894072 7.07654476390166  21.4536713766659 7.08694213867187  C 21.4503383315142 7.09546577004825  21.4463704575483 7.10465073529412  21.4424422119141 7.11354176240809  C 21.4331970229205 7.13646739286535  21.4239517951517 7.15972369025735  21.4133972038718 7.18264932071461  C 21.409746744313 7.19058511173024  21.405818537454 7.19855766745175  21.40216803912 7.20678736069623  C 21.3942719195198 7.22357745002298  21.3860186796301 7.24040426815257  21.3777654785156 7.25752502441406  C 21.3737975657744 7.26483624626608  21.3705042265051 7.27214746811811  21.3671711813534 7.27956891228171  C 21.36022734375 7.2929789464614  21.3532835449219 7.30638898064108  21.3464190803079 7.31990920122932  C 21.3430860351563 7.32542017319623  21.339792695887 7.3315189855239  21.3368167710248 7.33706668629366  C 21.3292381046071 7.3510645608341  21.321619732307 7.36513589298024  21.314041027114 7.37861938476563  C 21.3064623606962 7.39202941894531  21.2992010699104 7.4055129107307  21.2919398178998 7.41837183335248  C 21.2879322380515 7.42447064568015  21.2840040311926 7.43056945800781  21.2803535716337 7.43703566607307  C 21.267180137006 7.45933672736673  21.2539670352711 7.48130712172564  21.2397619844325 7.50335100959329  C 21.2298819278493 7.51929608513327  21.219287630687 7.53483700022978  21.2094075741039 7.55041468003217  C 21.1991307301241 7.5654045194738  21.1892506347656 7.58039435891544  21.1790134578929 7.59567810058594  C 21.1667526381549 7.61276209214154  21.1545711914063 7.63047068876378  21.141992957261 7.64762817382812  C 21.1330651826746 7.65982579848346  21.1241771139706 7.67209688074448  21.1149318862018 7.68429450539981  C 21.0911244873047 7.71673573213465  21.0663648064109 7.74851566090303  21.0409702579274 7.77996492273667  C 21.0409702579274 7.78033231847427  21.0402957232307 7.78062625660616  21.0402957232307 7.78088343003217  C 21.0145440544577 7.81266335880055  20.98879242446 7.84389217601103  20.9614139002183 7.87537820255055  C 20.9590728429458 7.87809695973116  20.9564540383732 7.88118307674632  20.9538352338006 7.88390183392693  C 20.9492324534697 7.8897067081227  20.943915471335 7.89525444479549  20.9389556094899 7.90135322122013  C 20.920822313017 7.92152336569393  20.9026493494371 7.94231807933134  20.8838018123851 7.96248825970818  C 20.8824924100988 7.96428850959329  20.8808655546301 7.96550091911764  20.8791990320542 7.96737466251149  C 20.8759056927849 7.97104865579044  20.8719377800437 7.97534718232996  20.8683269875919 7.97898444680606  C 20.8267037454044 8.02362329819623  20.7834536477482 8.06826214958639  20.7385767333984 8.11223970301011  C 20.7378624928194 8.1126070987477  20.7378624928194 8.11290103687959  20.7378624928194 8.11290103687959  C 20.6507274686926 8.19813735064338  20.5576008889591 8.28197757496553  20.4585621653837 8.36420122931985  C 20.4578876306871 8.36449513154871  20.4578876306871 8.3647890696806  20.457609883387 8.3647890696806  C 20.4103919117647 8.4042476160386  20.3615073787914 8.44308159323299  20.3116706025965 8.48162163229549  L 20.2987749152689 8.49194551355698  C 20.1944588766659 8.57174434886259  20.0848258559283 8.65033077464384  19.9696377728631 8.7270067282284  C 20.5358568000345 8.84108380485983  21.0812840590533 9.00858053768382  21.5982615105124 9.22442684397978  L 21.5982615105124 6.8512931913488  L 21.5315612117992 6.85129304773667  Z M 0.00646829762177979 4.61806461109835  C 0.0088095099954051 4.65050576602711  0.011428353343291 4.6829102639591  0.0147216926125908 4.71531479779412  C 0.243867790670956 6.75554917279412  3.73363407628676 8.44058317296645  8.36202838493796 8.88568581973805  C 8.85166697926241 8.93274949017693  9.35447904698989 8.96577859317555  9.86721079963235 8.98407499425551  C 10.174921306296 8.99513366699219  10.4859251522289 9.00057114545037  10.8005397518382 9.00057114545037  C 10.9052129107307 9.00057114545037  11.0102034840303 8.99998330508961  11.1138449879366 8.99877089556526  C 11.842827190085 8.99017377068015  12.5533190142463 8.95170722512638  13.239368571921 8.88568581973805  C 14.0937760340074 8.80346216538373  14.9092981373506 8.67902447868796  15.6726026625689 8.5175530646829  C 15.7379539306641 8.50384912827436  15.8026703699449 8.48977779612822  15.8670296501608 8.4753757611443  C 16.3645643640855 8.36537680233226  16.8386488381778 8.23943280388327  17.285711908318 8.09879283231847  C 17.3728469324449 8.0718993063534  17.4583948457606 8.04375660615809  17.543228479722 8.01561394186581  C 17.7261088881549 7.95514023724724  17.9037516874426 7.8914701573989  18.0764346248851 7.82611008588005  C 18.1995981617647 7.77904641544117  18.3197858125574 7.73132141113281  18.4373149528952 7.68209009507123  C 18.5541695585363 7.6335200769761  18.6677704532399 7.58362742704503  18.7793477438534 7.53288979923024  C 18.8298590935202 7.51000089757583  18.8796958697151 7.48674460018382  18.9289374842027 7.46293722713695  C 19.0936449290556 7.38464470358456  19.2527973115809 7.30392739688649  19.4046487749885 7.22082196403952  C 19.4059978443819 7.21960955451516  19.4079818201402 7.21839714499081  19.4099657571232 7.21777257582721  C 19.6285175967946 7.0973395134421  19.8332214283663 6.97257115981158  20.022410806813 6.84357773724724  C 20.0682797090418 6.81209174661075  20.1131963292739 6.78027505313649  20.157438376034 6.74849516027114  C 20.3330972383387 6.62163265452666  20.4948684254366 6.49076548856847  20.6410854535271 6.35626109403722  C 20.6783837014591 6.32201961741728  20.7144122142119 6.28748420266544  20.7496868192785 6.25265488568474  C 20.8870554457721 6.11719525505515  21.009544447955 5.97842906278723  21.1155270091337 5.83628277946921  C 21.1663557732077 5.76750588809743  21.2132563304228 5.6983983297909  21.256506428079 5.62811509076287  C 21.3043592672909 5.55107174144072  21.34729195054 5.47344055175781  21.3852647331687 5.39514802820542  C 21.4063739545037 5.35113374597886  21.4258563203699 5.3071194637523  21.4440292839499 5.26310521742877  C 21.5169592572381 5.08363130457261  21.565526337029 4.90114473230699  21.5863181051815 4.7152781048943  C 21.5902860179228 4.68287360696232  21.5929048224954 4.65046910903033  21.5948887594784 4.61806461109835  C 21.5972298167509 4.57923063390395  21.5981820987477 4.54043342141544  21.5981820987477 4.50189338235294  C 21.5981820987477 2.01718096564798  16.7640919706457 0.00262770708869558  10.8004999684053 0.00262770708869558  C 4.8372650864545 0.00262770708869558  0.0028178380629571 2.01718096564798  0.0028178380629571 4.50189338235294  C 0.0028178380629571 4.54043342141544  0.00412724034926198 4.57923066980699  0.00646829762177979 4.61806461109835  Z M 17.7643991627413 23.936327083812  C 15.5254333912569 23.8293775132123  13.5180737764246 22.8982808550666  12.0891543413948 21.465465518727  C 11.9914250201057 21.4699845257927  11.8940131132238 21.4749443862017  11.7956489243451 21.4788755529067  C 11.769579841165 21.4797940602022  11.743828172392 21.4810431985294  11.7177590892119 21.4815943100873  C 11.581064997415 21.4864807128906  11.4437360380285 21.4901914349724  11.3053754624311 21.4932040943819  C 11.2829171717027 21.4934979966108  11.2598239746094 21.4938654282514  11.2370085635915 21.4941226016774  C 11.0921009377872 21.4962902473001  10.9468361916935 21.4980537683824  10.8005397906135 21.4980537683824  C 10.6542830566406 21.4980537683824  10.5090183105469 21.4962535184972  10.3644281379251 21.4941226016774  C 10.3412952737247 21.4938286994485  10.3185195685892 21.4932040943819  10.2957834917854 21.492910192153  C 10.1577403305951 21.4901914349724  10.0204510383157 21.4864439840878  9.88371727941176 21.4815575812845  C 9.85764819623162 21.4807125674977  9.83157911305147 21.4797573313994  9.80578777717142 21.478544921875  C 9.66778428308824 21.4736585190717  9.53045532370175 21.4674862491383  9.39411835219439 21.4598810891544  C 9.37725479090073 21.4589625818589  9.36074831112133 21.4580073457606  9.34424187011719 21.4570888743681  C 9.208222313017 21.4494837502872  9.07319474379596 21.4409601189108  8.93880204216452 21.4311138556985  C 8.92856486529182 21.4302688419118  8.91832768841912 21.4296075080423  8.90777309713924 21.4290197035846  C 8.7707615909352 21.4189162669462  8.63474203383502 21.4075636560777  8.49903992991728 21.3953660673254  C 8.47662130629596 21.3931984217027  8.45448042997473 21.3910675048828  8.43233955365349 21.3892672549977  C 8.29961337459789 21.3767022346048  8.16823626493566 21.363586138557  8.03812889045267 21.3488534725414  C 8.01733712230009 21.3467593204274  7.99650564826517 21.3442610078699  7.97607096162684 21.3421668198529  C 7.84132113970588 21.3268830781824  7.70732522547105 21.3109380026425  7.57459904641544 21.2932294060202  C 7.57063113367417 21.2929355037914  7.56634580652574 21.2926415656595  7.5620604793773 21.2920169964959  C 7.42869943273208 21.2743083998736  7.29597325367647 21.2553506649242  7.16455647690717 21.236062298943  C 7.1516607895795 21.233968146829  7.13880480813419 21.2323883056641  7.12622657398897 21.2302574247472  C 6.99715085449219 21.2110425163718  6.86938453728171 21.1905784337661  6.74292762235754 21.1691223862592  C 6.72411979118796 21.1661097268497  6.70566904153263 21.1624357335708  6.68713895766315 21.1593496165556  C 6.56040429543888 21.1379670625575  6.43521711569394 21.1153720631319  6.31141871122473 21.0914544677734  C 6.29888014418658 21.0890296487247  6.28701615062041 21.0865680649701  6.27475533088235 21.0841432459214  C 6.01660389188879 21.0346179917279  5.76404718232997 20.980794210995  5.51740265538833 20.9233331657859  C 5.5054989559398 20.9203205063764  5.49331750919118 20.9175282915901  5.48141380974265 20.9148095344095  C 5.36190073242188 20.8864096607882  5.24373672449449 20.8573484892004  5.12680278463925 20.8270381433824  C 5.11358968290442 20.8236580882353  5.10041624827666 20.8200208596622  5.08684606502758 20.8170081643497  C 4.96836464269302 20.7857793471393  4.85079579647289 20.7539994183709  4.73525063189339 20.721300982307  C 4.73231437413833 20.7204559685202  4.7293384492762 20.7197946346507  4.72632285730699 20.7185822251264  C 4.60581779210708 20.6843407485064  4.486979249483 20.6494746668199  4.37040239114201 20.6133961756089  C 4.3690929888557 20.6128083352482  4.36746613338695 20.6125511618222  4.36643447840074 20.6121837660846  C 4.2531906652114 20.5770237821691  4.14228790929458 20.5409820556641  4.03265488855699 20.5043157240924  C 4.0267427059398 20.5021480784697  4.02011632151884 20.5003110997817  4.01380739028033 20.498143454159  C 1.86023074735754 19.7720916029986  0.390402271943939 18.7077396886489  0.0694787023207766 17.4989636589499  L 0.00277832605698932 17.4989636589499  L 0.00277832605698932 20.498143454159  C 0.00277832605698932 22.5161134966682  3.19173827550552 24.2237057674632  7.58443943589155 24.7941278435202  C 7.58475685029872 24.7941278435202  7.58511397058824 24.7941278435202  7.58574883817785 24.7944952392578  C 7.69867519818475 24.8088605095359  7.81291099925322 24.8228951128791  7.92778162913603 24.8357540355009  C 7.95551723489201 24.839134090648  7.98321317354091 24.842514145795  8.01098844640396 24.8452329029756  C 8.12454967400046 24.8577979233686  8.23878547506894 24.8699955121209  8.3536958108341 24.8809807272518  C 8.3556797478171 24.8813481229894  8.35698915010341 24.8816420611213  8.35865567267923 24.8816420611213  C 8.47519282513787 24.8929211784812  8.59272196547565 24.9030246151195  8.71092564051011 24.9127974207261  C 8.73933578096278 24.9152222397748  8.76834112189798 24.9177572811351  8.79710838264017 24.9195575310202  C 8.91428040268842 24.9287424962661  9.03149212861903 24.9372661276425  9.15005292394302 24.9452386474609  C 9.15136232622932 24.9452386474609  9.15267172851563 24.9452386474609  9.15402083668429 24.9452386474609  C 9.27357361988741 24.9528437715418  9.3937215647978 24.9593099796071  9.51454404440487 24.9654087919347  C 9.54426358714384 24.9666212014591  9.57398316865809 24.9684949448529  9.60370271139706 24.9697073543773  C 9.72385065630745 24.9751448328355  9.84471284179688 24.9801047291475  9.96620985610065 24.9840726246553  C 9.96688439079734 24.9843665268842  9.96819379308364 24.9843665268842  9.96882866067326 24.9843665268842  C 10.0906431281595 24.9880405201631  10.2134892506319 24.9908327349495  10.3363353731043 24.9929636517693  C 10.3670072366154 24.9935514921301  10.3980758487477 24.9938086655561  10.4291048325483 24.9944699994256  C 10.5525461555032 24.9959763470818  10.6760668126723 24.9971887566062  10.8005000847312 24.9971887566062  C 10.92493335679 24.9971887566062  11.0491285874311 24.9959763470818  11.1722524572036 24.9944699994256  C 11.2029243207146 24.9938086655561  11.233992932847 24.9935514921301  11.2650219166475 24.9929636517693  C 11.38786803912 24.9907960061466  11.5106347886029 24.9880037913603  11.6321715087891 24.9843665268842  C 11.6334809110754 24.9843665268842  11.6341554457721 24.9843665268842  11.6347903133617 24.9840726246553  C 11.7563270335478 24.9801414579504  11.8771098460478 24.9751815975414  11.9972974580653 24.9697073543773  C 12.0270170008042 24.9684949448529  12.0570936638327 24.9666212014591  12.0867735394646 24.9654087919347  C 12.2072786046645 24.9593099796071  12.3277836698644 24.9528437715418  12.446979332778 24.9452386474609  C 12.4482887350643 24.9452386474609  12.4495981373506 24.9452386474609  12.4509472455193 24.9452386474609  C 12.5698254552505 24.9372661276425  12.6873545955882 24.9287424962661  12.8042092012293 24.9195575310202  C 12.8332542092716 24.9177572811351  12.8616643497243 24.9152589685777  12.8903919433594 24.9127974207261  C 13.0082782039867 24.9030246510225  13.1258073443245 24.8929211784812  13.2426619111903 24.8816420611213  C 13.2439713134766 24.8816420611213  13.2452807157629 24.8813481588925  13.2472646915211 24.8809807272518  C 13.3621750272863 24.8699955121209  13.4763711224724 24.8577979233686  13.5899720559513 24.8452329029756  C 13.6177076617073 24.842514145795  13.6454432674632 24.839134090648  13.6734963264017 24.8357540355009  C 13.7880892089844 24.8228951128791  13.9023250100528 24.8088605095358  14.0158862376494 24.7944952392578  C 14.0158862376494 24.7941278435202  14.016560772346 24.7941278435202  14.0171956399357 24.7941278435202  C 15.4077851720473 24.6138089168773  16.677591891659 24.3187883444393  17.7643991627413 23.936327083812  Z M 0.00619047277113835 15.2791452205882  C 0.00682557301240874 15.2906079819623  0.00785722799862027 15.3019605569279  0.0088095099954051 15.3132764389936  C 0.0104760325712314 15.3370838120404  0.0124599695542278 15.3609279497932  0.0150787741268389 15.3848088163488  C 0.0167452967026667 15.3976677389706  0.0180546989889716 15.4104164392808  0.0200386359719679 15.4232753978056  C 0.0226574405445791 15.4459438548369  0.0259508185891551 15.4685388183594  0.0299186925551478 15.4911705465878  C 0.031942335420497 15.5037355669807  0.0339262724034934 15.5162270938649  0.0365450769761045 15.5284981761259  C 0.0411478573069868 15.5529668830423  0.0464251335592844 15.5773620964499  0.0517421156939362 15.6018308033663  C 0.0540435058593759 15.6119342400046  0.0560274428423723 15.6220009478401  0.0583288330078149 15.6323983226103  C 0.0669391544117665 15.6666397992302  0.0758272618910863 15.7009180405561  0.086064438763789 15.735159517176  C 0.0873738410500953 15.7381721765855  0.0884054960363068 15.7418461698644  0.0893577780330902 15.7449322868796  C 0.0986029670266567 15.7754998061236  0.108483062385113 15.8060673253676  0.119751894244028 15.8366348087086  C 0.123402353802851 15.8476200238396  0.127648013844212 15.8586786965763  0.131655593692557 15.8696271470014  C 0.140226247989432 15.8925895062615  0.149471436982999 15.9154784079159  0.15871666475184 15.9387347053079  C 0.163676526596969 15.9506383918313  0.168636427217374 15.9625420783548  0.173913703469672 15.9748131965188  C 0.183833465935206 15.9971142578125  0.193753189625463 16.019452047909  0.204307819680609 16.0414224422679  C 0.20962480181526 16.0530322265625  0.214902116842833 16.0646787396599  0.220814260684745 16.0762885239545  C 0.232717960133274 16.1007572308709  0.245256527171418 16.1255198400161  0.258429923023899 16.1496946447036  C 0.262715250172335 16.1585121783088  0.267040244427851 16.1674032413258  0.271643024758733 16.1759636015051  C 0.290133441521141 16.2089559397978  0.308663525390627 16.2419850068934  0.328463305664063 16.2749773451861  C 0.331756644933366 16.2798637479894  0.335050022977943 16.2848236083984  0.337668827550553 16.2896732464959  C 0.354849842026656 16.3171546128217  0.372348270909927 16.3450033748851  0.39052123448989 16.3727786793428  C 0.397465072093292 16.3831760541131  0.404369203814339 16.3930223173254  0.411630455824909 16.4033461985869  C 0.426827494542741 16.4256472598805  0.442302319335939 16.447985049977  0.458531013039982 16.4706535070083  C 0.466427132640167 16.4816387221392  0.474362919347427 16.4926239013672  0.482933573644302 16.503645845301  C 0.499122600241269 16.5256897331687  0.51594649442785 16.5476233987247  0.533127470128677 16.5696672506893  C 0.541063256835938 16.5800646254596  0.548959376436122 16.590131333295  0.557212616325828 16.6002347699334  C 0.577726637178309 16.6259158863741  0.599192978802851 16.6515970028148  0.62030220013787 16.6766535500919  C 0.625579515165442 16.6827523624196  0.630539377010571 16.6888511747472  0.6354992388557 16.6950234446806  C 0.663195177504597 16.726803373449  0.691605317957263 16.7588772044462  0.721007446289065 16.7903999597886  C 0.725253106330426 16.7952863625919  0.729935220875461 16.7998788272633  0.734537962431069 16.8044712919348  C 0.758940523035389 16.8310341509651  0.784057324218752 16.8573398724724  0.809808992991731 16.8836088292739  C 0.81901451487822 16.8924998563879  0.827942289464616 16.9016848216337  0.836870064051014 16.910245181813  C 0.859328354779414 16.9328401453355  0.881786684283091 16.9548840332031  0.904879842601106 16.9768911563649  C 0.915117019473809 16.9863700238396  0.925393863453587 16.9958488913143  0.935273958812043 17.0052910299862  C 0.959081357709101 17.0275920912799  0.983841038602944 17.0495624856388  1.00860071949679 17.07223094267  C 1.01780624138328 17.0801300048828  1.02641656278723 17.0881025247013  1.03597920496324 17.0966996495864  C 1.06732560317096 17.1241810159122  1.09966395048254 17.1516623822381  1.13271657714844 17.1792172420726  C 1.13505763442096 17.1816420611213  1.1373590245864 17.183809706744  1.14001749626609 17.185903894761  C 1.17699829101563 17.2164714140051  1.21497107364431 17.2471123908548  1.2535787238626 17.2776799100988  C 1.25853858570772 17.2813539033778  1.2638159007353 17.2852850341797  1.26877576258043 17.2892162008847  C 1.30143156307445 17.3148973173254  1.334444483858 17.3400273222082  1.36848902085249 17.3650471406825  C 1.37840878331802 17.3723583625345  1.3882888399012 17.3800369801241  1.3985260167739 17.3873482019761  C 1.42860267980239 17.4093920898438  1.4589174230239 17.4313257553998  1.48966862074909 17.4530757051356  C 1.5005406652114 17.4610482249541  1.51113496237363 17.4683594468061  1.52200700683594 17.47596460679  C 1.55466280732997 17.4989269660501  1.58803284840304 17.5215219654757  1.62136318359375 17.5441169289982  C 1.62997350499771 17.5496279009651  1.63858386517693 17.5554695398667  1.64711485236673 17.5612744140625  C 1.7339324620864 17.6190293615005  1.82408311695772 17.6759393310547  1.9172096579159 17.7318572998047  C 1.92117757065717 17.7342821188534  1.92546289780561 17.736743702608  1.9297085190717 17.7391685216567  C 1.9713317612592 17.7642985265395  2.01323278952206 17.7890244427849  2.05584798081342 17.8134931137983  C 2.06576774327896 17.8189305922564  2.07533034667969 17.8244783289292  2.0848929888557 17.8299892649931  C 2.12381805348116 17.8522903262868  2.16282249109605 17.8736728802849  2.20242212919348 17.8957167681526  C 2.21265930606618 17.9011542466108  2.22257906853171 17.9064080451517  2.23249879222197 17.9122129193474  C 2.27574888987822 17.9353957232307  2.31931640194164 17.9586520206227  2.36355844870175 17.9816143798828  C 2.36951029842601 17.9846270392923  2.37478761345359 17.9874192540786  2.38073946317785 17.9904319134881  C 2.48442063419118 18.0442557301241  2.59139518324908 18.0974182128906  2.70130595128677 18.1494417437385  C 2.70364700855929 18.1502867575253  2.7062658131319 18.1515358958525  2.70888461770451 18.1527483412799  C 2.75975308766085 18.1766292078355  2.81125638643153 18.2001794074564  2.86343425867418 18.2239868164063  C 2.87133037827436 18.2276608096852  2.87958361816406 18.2312980382583  2.88783681927849 18.2349720315372  C 2.93604677877987 18.256721981273  2.98489160587087 18.2781045352711  3.03441096765855 18.2991931870405  C 3.04234675436581 18.3025732421875  3.04960800637638 18.3059532973346  3.05754383185892 18.3095905618107  C 3.28799933220359 18.4083471320657  3.5290094626034 18.5024745088465  3.78057422305837 18.5920461138557  C 3.78589120519301 18.5939198572495  3.79148593462776 18.5963446762983  3.7970806640625 18.5981449261834  C 3.85620233513327 18.6189396398208  3.91560179227942 18.6397711181641  3.97603286563649 18.6601984360639  C 3.97968332519532 18.6617782413258  3.98333378475414 18.6629906508502  3.98726203038833 18.6642030603745  C 4.24743711224725 18.7522316248277  4.51780966509651 18.8357044175092  4.79746711282169 18.913629545324  L 4.80373637695313 18.9154297952091  C 5.65322364430147 19.1526586555032  6.58790170467601 19.3406561997358  7.58463769387638 19.4699802892348  C 7.58495510828355 19.4699802892348  7.58531222857307 19.4699802892348  7.58594709616268 19.4703476849724  C 7.61896001694623 19.4742788516774  7.65264747242647 19.4782467471852  7.68566035443475 19.4822513714959  C 7.75101162252988 19.4905178294462  7.81672001091453 19.4984536204619  7.88242839929918 19.5060587445427  C 7.89762543801701 19.5079324879366  7.91282251551011 19.5100633688534  7.92797988712087 19.5115697165097  C 7.95571549287684 19.5149497716567  7.98341143152574 19.5183298268038  8.01118670438879 19.5210485839844  C 8.01908282398897 19.5219670912799  8.02638374310662 19.5225549316406  8.03427986270681 19.5234734030331  C 8.11716926556756 19.5329522705078  8.20069349724265 19.5414759018842  8.28421776769302 19.5494484217027  C 8.30766804630055 19.5518732407514  8.33080087172565 19.5546287267348  8.35389406881894 19.5567596435547  C 8.35587800580193 19.5574209774242  8.35718740808824 19.5574209774242  8.35917138384651 19.5574209774242  C 8.39416824161306 19.5608010325712  8.43051420754826 19.5635197897518  8.46582847972197 19.5668998448989  C 8.52955293112363 19.5727047190947  8.59327738252528 19.5782524557675  8.6573192483341 19.5836899342256  C 8.67549221191407 19.5852697394876  8.69295097369026 19.5867760871438  8.71112393727022 19.588576337029  C 8.73985153090533 19.5910011560777  8.76853941865809 19.5931688017004  8.79730667940028 19.5953364473231  C 8.80425051700368 19.5959977811926  8.81083719554228 19.5965488568474  8.81746361873851 19.5968427949793  C 8.91384387063419 19.6045214125689  9.01089865722657 19.6112815228631  9.10795344381894 19.6176375086167  C 9.12184108025046 19.6185560159122  9.13604616986443 19.6198051542394  9.15021155359605 19.6210175637638  C 9.15152095588235 19.6210175637638  9.15283035816866 19.6210175637638  9.15417946633732 19.6210175637638  C 9.18981119169348 19.6234423828125  9.22552229003906 19.6246915570427  9.26115401539522 19.6271163760915  C 9.32650528349035 19.6307903693704  9.392213671875 19.6344275979435  9.45827918054917 19.6381750488281  C 9.47708701171875 19.6387628891889  9.49553776137408 19.6399752987132  9.51470267405791 19.6411877082376  C 9.54442221679687 19.642400117762  9.57414179831112 19.6442738611558  9.60386134105009 19.6454862706801  C 9.60846412138097 19.6454862706801  9.61310653004366 19.645780172909  9.61774897748162 19.6460741110409  C 9.71643061954274 19.6503726734835  9.81582646340763 19.6543405689913  9.91522230727252 19.6576838953355  C 9.93240332174862 19.658345229205  9.94918751005285 19.6591902429917  9.96636852452895 19.6598515409582  C 9.96736051240809 19.660145443187  9.96835246151195 19.660145443187  9.96898732910156 19.660145443187  C 10.0036667724609 19.6610639504825  10.038346177045 19.6613578527114  10.0733430348116 19.6625702622358  C 10.1386943029067 19.6644440056296  10.2040852768842 19.665656415154  10.270111079676 19.6671627269072  C 10.2922519559972 19.667456629136  10.3143531264361 19.6571327478745  10.3368114559398 19.6576838594325  C 10.3672055721507 19.6583451933019  10.398234517176 19.6482049919577  10.4292634622013 19.6482049919577  L 10.4338662425322 19.6482049919577  C 10.4358501795152 19.6482049919577  10.4226370777803 19.6595576028263  10.4226370777803 19.6595576028263  L 10.4226370777803 19.6649950812845  C 10.5623070944393 19.6662074908088  10.6521006290211 19.669293643727  10.751496472886 19.6702488798254  C 10.1961494514017 18.6385219080308  9.88351878877527 17.4726212086397  9.88351878877527 16.2439689725988  C 9.88351878877527 16.2136953914867  9.88447107077206 16.1990362189798  9.88447107077206 16.1488863956227  C 9.85772745289522 16.1488863956227  9.83165836971507 16.1513112146714  9.80586703383502 16.150392743279  C 9.66786353975184 16.1452124382468  9.53053458036535 16.1412812715418  9.39419760885799 16.1338965920841  C 9.37733404756434 16.1329780847886  9.36082756778493 16.1329780847886  9.34432112678079 16.1317289464614  C 9.2083015696806 16.1244177246094  9.07327400045956 16.1164452047909  8.93888129882813 16.1066723991843  C 8.92896153636259 16.1057538918888  8.91840694508272 16.1054599896599  8.90820943531709 16.1045047535616  C 8.77084080882353 16.094474774529  8.63482125172334 16.0834161017923  8.49943660098805 16.07121851304  C 8.47701797736673 16.0687936939913  8.45455968663833 16.0669199505974  8.43245847742417 16.0651197007123  C 8.30004971277573 16.0528486184513  8.16867260311351 16.0394385842716  8.03824781422334 16.024705918256  C 8.01773379337086 16.022611766142  7.99662457203585 16.0204808493222  7.97618988539752 16.0180192655676  C 7.84144006347656 16.0027355238971  7.70744414924172 15.9867904483571  7.57471797018612 15.9697431856043  C 7.57075005744485 15.9690818517348  7.56646473029641 15.96853077608  7.56249685633042 15.9678694422105  C 7.42877868939568 15.9501608455882  7.29605251034007 15.9317909509996  7.16467540067785 15.9122453756893  C 7.1521368336397 15.9100777300666  7.13892373190487 15.9082407513787  7.12634549775965 15.9064405014936  C 6.99726977826287 15.8871520996094  6.86950346105239 15.8663941147748  6.74304654612822 15.8449380672679  C 6.72423871495864 15.8419254078585  6.70578796530331 15.8388392549403  6.68725788143382 15.8354591997932  C 6.56080096650965 15.8137827076632  6.43569315975413 15.7911877441406  6.3115376349954 15.767306877585  C 6.2993165211397 15.7651392319623  6.28713507439109 15.7630818086512  6.27487425465303 15.7602895938649  C 6.01672281565947 15.7105071662454  5.76416610610064 15.6566833855124  5.51783899356618 15.5991855755974  C 5.50561787971048 15.596172916188  5.49343643296186 15.5937480971393  5.48153273351333 15.5906619442211  C 5.36201965619255 15.5625192440257  5.24385564826516 15.533200899012  5.12727878992417 15.5032579848346  C 5.11370856789982 15.4995105339499  5.10053517204733 15.4958732694738  5.08696495002298 15.4928606100643  C 4.96848352768842 15.4616317928539  4.85091468146829 15.4298518640855  4.73536951688879 15.3974840949563  C 4.73243325913373 15.3961981919233  4.7294573342716 15.3956103515625  4.72644174230239 15.39469188017  C 4.60593667710248 15.3604504035501  4.48741554888557 15.3252904196347  4.37052127613741 15.2892119284237  C 4.3692118738511 15.288624088063  4.3679024715648 15.288366914637  4.36655336339614 15.2879995188994  C 4.2533095502068 15.2528395349839  4.14240679428998 15.2292893353631  4.03277377355239 15.1926230037914  C 4.03146437126608 15.1920351634306  4.02979784869026 15.1926230037914  4.02817099322151 15.1926230037914  C 4.02352854578355 15.1944967112822  4.01892580422794 15.1984278779871  4.01495789148667 15.198721780216  C 3.88615991928998 15.1540829288258  3.76006012465533 15.1082316679113  3.63657913459329 15.06153539321  C 3.63062728486902 15.0593677475873  3.62467543514476 15.0572368307675  3.6187235854205 15.0550691851448  C 3.49659170352711 15.0082994169348  3.37640405273437 14.9606479061351  3.2588749123966 14.9119676657284  C 3.25296272977941 14.9092489085478  3.24601893095129 14.9067873606962  3.23974962804458 14.9040686035156  C 3.1222204877068 14.8551311896829  3.00699273753447 14.8049813663258  2.89442345904182 14.7539498003791  C 2.88910647690717 14.7517821547564  2.88382916187959 14.7493573357077  2.87823443244485 14.7466385785271  C 2.7610624123966 14.693108700023  2.64682661132812 14.6386970430262  2.53588418830423 14.5834036793428  C 2.53520965360754 14.5830362836052  2.53489220042509 14.5830362836052  2.53457478601792 14.5830362836052  C 2.4302190803079 14.5304983700023  2.32856151338465 14.4776298253677  2.22980053710937 14.4235120705997  C 2.2232138197955 14.4198380773208  2.21627002096737 14.4164947868796  2.20968330365349 14.4128207936007  C 1.99970215705423 14.297494578642  1.80293407341452 14.1783106904871  1.6196965446921 14.0553793155446  C 0.891031756950828 13.5669237563189  0.381910757984834 13.020272324506  0.148479332778033 12.4348604090074  C 0.117132934570311 12.3569353170956  0.0907067311006419 12.2786427935432  0.0695975097656244 12.1997991943359  L 0.00289713350183712 12.1997991943359  L 0.00289713350183712 15.1742898380055  C 0.00289713350183712 15.2090824261834  0.00420653578814199 15.24394850787  0.00619047277113835 15.2791452205882  Z M 0.00615092198988876 9.95543826832491  C 0.00682557301240874 9.96723191205193  0.00785722799862027 9.97818039838005  0.0088095099954051 9.98923907111673  C 0.0104760325712314 10.0130464441636  0.0124599695542278 10.037257977654  0.0150787741268389 10.0613592888327  C 0.0167452967026667 10.0736303710938  0.0180546989889716 10.0864158361098  0.0196815544577212 10.0989440917969  C 0.0226574793198538 10.121906451057  0.0263079388786779 10.1450892908433  0.029918731330424 10.1677577478745  C 0.0319423741957732 10.1799553725299  0.0339263111787695 10.1921529612822  0.0365451157513807 10.2041301413143  C 0.0411478960822629 10.2294438620175  0.0464251723345605 10.255161707261  0.0523770220588244 10.2801815257353  C 0.0543609590418207 10.2893664909812  0.0560274816176485 10.2982575180951  0.0582892046760115 10.3070750517004  C 0.0751527659696695 10.3773950195313  0.0959048670151655 10.4467964800666  0.120704253791361 10.5156101361443  C 0.123005643956801 10.5222967888327  0.125624448529412 10.529020170324  0.12796550580193 10.5357802806181  C 0.138559802964154 10.5641801542394  0.14943184742647 10.5926167566636  0.161335546875001 10.6207594209559  C 0.164271804630055 10.6280706428079  0.167247729492188 10.634830753102  0.169906201171876 10.6415541345933  C 0.18311930290671 10.6714603199678  0.196332404641545 10.701476727654  0.210497788373162 10.7313829489315  C 0.212164310948989 10.7350569422105  0.214148247931985 10.7387676642923  0.216132184914982 10.7427355598001  C 0.996617724609375 12.3595805089614  3.85675794605928 13.6624839154412  7.5845187701057 14.1466776769301  C 7.58483618451287 14.1466776769301  7.58519330480239 14.1466776769301  7.585828172392 14.1466776769301  C 7.6987545323989 14.1613001206342  7.81299033346737 14.1750775505515  7.92786096335018 14.1882303754021  C 7.95559656910616 14.1913165283203  7.98329250775506 14.1944026453355  8.01106778061811 14.197415340648  C 8.12494646139706 14.2102742632698  8.23886480928309 14.2224718879251  8.35377514504825 14.2334938318589  C 8.35575908203125 14.2334938318589  8.35706848431755 14.2340816722197  8.35905246007583 14.2340816722197  C 8.4752721981273 14.2451403449563  8.59284100557215 14.2555377197266  8.71100501349954 14.2650165872013  C 8.73973260713465 14.26744140625  8.76842049488741 14.2696090518727  8.7971877556296 14.2720338709214  C 8.91435977567785 14.2811453426586  9.0319285831227 14.2897424675437  9.15013229693245 14.2970904181985  C 9.15144169921875 14.2976782585593  9.15275110150506 14.2976782585593  9.15410020967371 14.2976782585593  C 9.27365299287684 14.3053568761489  9.39380093778723 14.3117495907054  9.5146234173943 14.3179218965418  C 9.54434296013327 14.3191343060662  9.57406254164752 14.3206406537224  9.60413920467601 14.3218530632468  C 9.60576606014476 14.3221469654757  9.60743254394531 14.3221469654757  9.60905939941406 14.3221469654757  C 9.78535309053309 14.3307440903608  9.96299588982077 14.3368428667854  10.1416306769876 14.3423171099495  C 10.5169938419118 12.9832385612937  11.2835917063994 11.7674452119715  12.3242523279527 10.8053769100414  C 12.3018337043313 10.8065893195657  12.2796928280101 10.8084630629596  12.2572742043888 10.809381534352  C 12.2423945800781 10.8102265481388  12.2272372084674 10.8115491799747  12.2120401697495 10.8121002915326  C 12.2103736471737 10.8121002915326  12.2087071245979 10.8121002915326  12.2073977223116 10.8121002915326  C 12.1618462344899 10.8145251105814  12.115937665154 10.8163988539752  12.0700687629251 10.8185664995979  C 11.9789261589499 10.8230855066636  11.8878232220818 10.8273840332031  11.7960457117417 10.8310580264821  C 11.7729525534237 10.8319765337776  11.7501768095129 10.8329317698759  11.727401065602 10.8334828455308  C 11.7240680204504 10.8338502412684  11.7207746811811 10.8338502412684  11.717838423426 10.8341441794003  C 11.7148624985639 10.8341441794003  11.7115691592946 10.8341441794003  11.7085932344324 10.8341441794003  C 11.5748750674977 10.8390305822036  11.4408394861558 10.8426678107767  11.3058119169347 10.8451293945313  C 11.2830361730239 10.8457907284007  11.2599430147059 10.8457907284007  11.2374847239775 10.8463418040556  C 11.0922199778837 10.8487666231043  10.94695523179 10.8503464283663  10.80065883071 10.8503464283663  C 10.6544020967371 10.8503464283663  10.5091373506434 10.8487666231043  10.3645471780216 10.8463418040556  C 10.3414143138212 10.8460479018268  10.3186386086857 10.8457539636949  10.2959025318819 10.8451293945313  C 10.1578593706916 10.8427045754825  10.0205700784122 10.8390305822036  9.88383631950827 10.8341441794003  C 9.87724960219439 10.8338502771714  9.87062321777344 10.8334828455308  9.86403650045956 10.8334828455308  C 9.84491121610754 10.8325643382353  9.8251114358341 10.8319764978745  9.80590677849265 10.8310580264821  C 9.7022652745864 10.8273840332031  9.59993321174173 10.8222404928768  9.49688686954274 10.8169866943359  C 9.46292166676241 10.8151864444508  9.42824222340303 10.8142679371553  9.39423735351562 10.8123942296645  C 9.39090430836397 10.8121003274357  9.38761096909467 10.8121003274357  9.38396050953584 10.8118063893038  C 9.37078707490809 10.8108878820083  9.35757397317325 10.8102265840418  9.34436087143842 10.8093815702551  C 9.29880938361673 10.8069567512063  9.25452766974954 10.8035766960593  9.2090158878102 10.80078444537  C 9.11918268612132 10.7953469669118  9.0287542839499 10.7900931683709  8.93927816377527 10.7834065156825  C 8.93169949735753 10.782745181813  8.92408112505744 10.782488008387  8.91650241986443 10.7821941061581  C 8.91384390940947 10.7815327722886  8.91118543772978 10.7815327722886  8.90824917997472 10.7815327722886  C 8.82932768985524 10.7754339599609  8.75139818761489 10.7686738496668  8.67350835248162 10.7619504681756  C 8.61537863051471 10.7570640653723  8.55728861443015 10.7528389964384  8.49947634564568 10.7473280244715  C 8.49189767922794 10.746666690602  8.4839618537454 10.7461156149472  8.47638318732766 10.7454542810777  C 8.46154323012408 10.7442418715533  8.44702072610294 10.7427355238971  8.4324982220818 10.7412292121438  C 8.30008945743336 10.7289581298828  8.16871234777114 10.7155480957031  8.03828755888097 10.701476763557  C 8.02836779641544 10.7002643540326  8.01844807272518 10.6990519445083  8.008568016142 10.6980967084099  C 7.99769597167968 10.6968842988856  7.98674459300321 10.6956718893612  7.97622963005514 10.694422715131  C 7.84147980813419 10.6794328756893  7.70748389389935 10.6631938979205  7.57475771484375 10.6458526970359  C 7.57344831255744 10.6458526970359  7.57178178998161 10.6454853012983  7.57015493451286 10.6451913631664  C 7.56753612994025 10.6451913631664  7.56519507266774 10.6445300292969  7.56257626809512 10.6445300292969  C 7.50016121897978 10.6360063979205  7.43877786362592 10.6268214326746  7.3773548023897 10.6182610724954  C 7.34501641630285 10.613668607824  7.31263840188419 10.6094435388902  7.28093488338695 10.6048510383157  C 7.24228756606158 10.5993400663488  7.2030053811466 10.5944536635455  7.16471514533548 10.5883548871209  C 7.15217657829733 10.586481143727  7.1389634765625 10.5846074362362  7.12606782801011 10.582843915154  C 7.08678564309513 10.5767451028263  7.04849540728401 10.570278894761  7.00949096966912 10.5641800824334  C 6.92037196978401 10.5501087502872  6.83121330279182 10.53633132037  6.74272917049632 10.521414974437  C 6.73348398150276 10.5198351691751  6.72423875373392 10.51803491929  6.71499356474035 10.5168225097656  C 6.70578804285386 10.5149487663718  6.69650314797794 10.5134424546186  6.68694054457721 10.5119361069623  C 6.56048362965303 10.4901861572266  6.43533611701516 10.467591157801  6.31153771254596 10.4440409581802  C 6.29899914550781 10.4416161391314  6.28713515194164 10.4391545553768  6.27455691779642 10.4367297363281  C 6.1457986127068 10.4119671271829  6.01803229549632 10.3859186150046  5.89157541934743 10.3590250531365  C 5.76547562471277 10.3322049847771  5.64068523236443 10.3043562227137  5.51716457519531 10.2752950511259  C 5.50530054285386 10.2728702320772  5.49339688218061 10.2698575726677  5.48153284983915 10.2670285931756  C 5.36201977251838 10.2386287195542  5.24385576459099 10.2095675479665  5.12692182473575 10.1793306956572  C 5.11370872300092 10.176244542739  5.10017820685892 10.1725705853631  5.08664765194164 10.168933320887  C 4.96812652372472 10.1379984059053  4.85091483656939 10.1065858728745  4.73505221880744 10.073556805779  C 4.73207629394531 10.0728954719095  4.72941782226563 10.071977000517  4.72612444422105 10.0710584932215  C 4.60593683220358 10.0368170166016  4.48709825080423 10.0020244284237  4.37020397805606 9.96565203498392  C 4.36889457576976 9.96528463924633  4.36758517348345 9.96473352768843  4.36619639820772 9.96443962545957  C 4.25327003820082 9.92927964154413  4.14236728228401 9.89320115033319  4.03277392865349 9.85649808995865  C 4.02650466452206 9.8546243465648  4.02023536161535 9.8528240966797  4.01364864430147 9.85039927763098  C 3.9370682114545 9.82435076545267  3.86044811150046 9.79778790642234  3.78454221335018 9.77060044232537  C 3.76140934914981 9.76233398437501  3.7383161908318 9.7537368594899  3.71518336540671 9.74547043744256  C 3.66169609087776 9.72596159093521  3.60852626953125 9.70637928682216  3.55607064998851 9.68650308048025  C 3.53131096909467 9.67731811523438  3.506868702608 9.66783924775966  3.48210902171415 9.65836038028493  C 3.42762979808134 9.63763912425322  3.37350765596277 9.61618307674633  3.3196632611443 9.59480052274817  C 3.30117284438189 9.58719539866729  3.28204759880515 9.57951678107767  3.26355718204274 9.57220555922565  C 3.19090495605469 9.54285044950598  3.1189273035386 9.51287077062271  3.04861613482307 9.48230328728171  C 3.04365627297794 9.4805030373966  3.03837895795037 9.47807821834789  3.03306197581572 9.4756166345933  C 2.9683455753102 9.44747393439798  2.9043036707261 9.41936799890855  2.84093633961397 9.39060072954964  C 2.82308079044118 9.38270166733686  2.80589981474035 9.37410457835479  2.78808393267463 9.36613202263328  C 2.73594576631434 9.3423246495864  2.68444242876838 9.31785594267004  2.63389141199449 9.29342396455653  C 2.61671039751838 9.28545144473806  2.59956908892463 9.27692781336168  2.5823881132238 9.26858786190258  C 2.52394097684972 9.24018798828126  2.46648582835478 9.21145748362822  2.40970517578125 9.18210237390856  C 2.40311845846737 9.1787223187615  2.39649207404642 9.17534226361444  2.38954823644302 9.17170499913833  C 2.32257011287914 9.13746352251839  2.25717917767693 9.10230353860295  2.19246273839614 9.06684961655561  C 2.19079621582031 9.06593110926012  2.18912969324448 9.06468197093291  2.18714575626149 9.06376346363741  C 2.12707176441866 9.03077112534467  2.06830721363741 8.99744812011719  2.0101774916705 8.9632433723001  C 1.99962290039063 8.95707110236673  1.98906827033548 8.95097229003907  1.97847397317325 8.9448734777114  C 1.92697067440257 8.91430595846738  1.87614187155331 8.88373843922335  1.82594797506893 8.85250962201287  C 1.81769473517923 8.84707214355469  1.80908441377528 8.84218574075138  1.80087084099265 8.83663803998162  C 1.62457714987362 8.72597778320313  1.45947287884881 8.61226810230929  1.30694688074449 8.49484769933365  C 1.30166956571691 8.49091653262868  1.29635258358226 8.48687517951517  1.29111497443704 8.48265007467831  C 1.24326213522518 8.44561634736903  1.19667899241728 8.40865611356848  1.15116721047794 8.37070391486673  C 1.14882615320542 8.36890366498162  1.14652476303998 8.36702992158778  1.14422337287454 8.36526643640855  C 1.04585918399586 8.28333668428309  0.953050057444854 8.20015779383043  0.866906982421876 8.11576649385341  C 0.819689010799632 8.06991523293888  0.774097855870864 8.02347613166361  0.730530343807446 7.97641246122473  C 0.728546406824449 7.97398764217602  0.725887896369485 7.97152605842142  0.723586506204044 7.96910123937271  C 0.721919983628218 7.96693359375  0.719936046645222 7.96509661506204  0.717952109662225 7.96292896943934  C 0.698826825310203 7.94220771340763  0.680336447323071 7.92137627096738  0.661488910271141 7.89999368106618  C 0.659822387695313 7.89811993767234  0.658512985409008 7.89631968778723  0.656886129940258 7.89473988252528  C 0.651251733398438 7.88834716796875  0.645974418370864 7.88224835564109  0.640697103343292 7.87607604980469  C 0.613318617876839 7.84429612103631  0.58689241440717 7.81251619226792  0.561140745634192 7.78069953469669  C 0.560783625344671 7.78040563246783  0.560783625344671 7.78011169433594  0.560148757755056 7.77948712517234  C 0.534714542164523 7.74770719640396  0.509954861270681 7.71592726763557  0.48586971507353 7.68355953440947  C 0.476941940487133 7.6715823543773  0.468371286190258 7.65967866785386  0.45944351160386 7.64773821662454  C 0.446944650448071 7.63028682933134  0.434683830710019 7.6125782327091  0.42246271685432 7.5951268454159  C 0.412225539981619 7.580210499483  0.402305777516086 7.56547783346737  0.392425720932905 7.55085538976333  C 0.38183142377068 7.53465314079734  0.371276832490809 7.51870806525735  0.361039655618108 7.5028364832261  C 0.346874271886489 7.48053542193245  0.333661170151655 7.45819763183594  0.32044806841682 7.43589657054228  C 0.316837275965074 7.43009169634651  0.313186816406251 7.4242867862477  0.309576023954505 7.41818797392004  C 0.30167990435432 7.40470448213465  0.294061532054228 7.39063311408548  0.28648286563649 7.37722311580883  C 0.283506940774357 7.37171214384191  0.280848469094671 7.3668257410386  0.277872544232538 7.36127804026884  C 0.270293877814799 7.34720670812271  0.262358052332262 7.33313534007353  0.254779385914523 7.31910073673024  C 0.247835548311123 7.30569070255055  0.240891749482997 7.29253787769991  0.234305032169117 7.27942174574908  C 0.2319639748966 7.27512318330653  0.230019705020681 7.27053071863511  0.228035768037683 7.2659382539637  C 0.218116005572151 7.24698051901425  0.208870816578584 7.22743494370405  0.199943041992188 7.2084772087546  C 0.195975129250919 7.19962291044348  0.191689802102481 7.1910258214614  0.187721928136489 7.18217152315028  C 0.177127630974265 7.15957655962776  0.167922109087776 7.13632026223576  0.15867692009421 7.1131006936466  C 0.155066127642464 7.10454033346737  0.151098253676471 7.09535536822151  0.147487461224725 7.08646434110754  C 0.143479881376379 7.07639763327206  0.139551674517465 7.06596352969899  0.135940882065717 7.05560291963465  C 0.126695693072151 7.03146487965304  0.117767918485754 7.00732683967142  0.109832131778493 6.98252746582031  C 0.106221339326747 6.97246075798484  0.102888294175091 6.96206338321462  0.0995949549057902 6.95195994657629  C 0.088722910443474 6.91867370605469  0.0788428538602942 6.88502003389247  0.0695579589843748 6.85110918830423  L 0.00285758272058753 6.85110918830423  L 0.00285758272058753 9.85032571231618  C 0.00285758272058753 9.88577959846048  0.00416698500689381 9.92057218663833  0.00615092198988876 9.95543826832491  Z M 26.8410848446117 23.6273086368336  C 27.0236875445198 23.4583422851562  27.0497566664752 23.2082545022404  26.8992146053539 23.0685330738741  L 23.9364248291016 20.3254664163028  C 23.9364248291016 20.3254664163028  23.936067708812 20.3254664163028  23.936067708812 20.3261277501723  C 24.8733645737592 19.1965994442211  25.4306558651195 17.7833297190947  25.4306558651195 16.2487451530905  C 25.4306558651195 12.5491578943589  22.1918591394761 9.55027200137867  18.196344567153 9.55027200137867  C 14.20082999483 9.55027200137867  10.9620332304113 12.54912109375  10.9620332304113 16.2487083883846  C 10.9620332304113 19.9482221895106  14.2008299560547 22.9471815400965  18.1963445283778 22.9471815400965  C 19.5182497472426 22.9471815400965  20.7573449362362 22.6188012336282  21.8237571877872 22.0453297693589  L 24.9143529483571 24.9066618436926  C 25.0645378891889 25.04608936983  25.3349898150276 25.0219146010455  25.5171956887638 24.8528380270565  L 26.8410848446117 23.6273086368336  Z M 18.196344567153 21.3862545596852  C 15.1321750100529 21.3862545596852  12.6477550350414 19.0862330537684  12.6477550350414 16.2487083883846  C 12.6477550350414 13.4112204518038  15.1321750100528 11.1110887594784  18.196344567153 11.1110887594784  C 21.2605141242532 11.1110887594784  23.7449340992647 13.4111837230009  23.7449340992647 16.2487083883846  C 23.7449340992647 19.0862330537684  21.2605141242532 21.3862545596852  18.196344567153 21.3862545596852  Z M 23.826791808364 20.45449656767  C 23.8268315142463 20.4539087273093  23.8271092615464 20.4539087273093  23.8274663430607 20.4535780603745  C 23.8271092227711 20.4539454561121  23.826791808364 20.4539454561121  23.826791808364 20.45449656767  Z M 21.9752912367877 21.9613425580193  C 21.9769577593635 21.9606812600529  21.9779497472426 21.9597627527573  21.979259149529 21.9591749123966  C 21.9779497472426 21.9597627527574  21.9769180922564 21.9606812600529  21.9752912367877 21.9613425580193  Z M 22.1317851476333 21.8699339743222  C 22.1291266759536 21.8711096191406  22.1271824060777 21.8729098690257  22.1251984303194 21.874159043256  C 22.1271823673024 21.8729466337316  22.1291663430607 21.8711463838465  22.1317851476333 21.8699339743222  Z M 22.2800258185892 21.7781946877872  C 22.2774070140165 21.7799949376723  22.2747485035616 21.7818686451631  22.2720900318819 21.7833749928194  C 22.2747485423369 21.7818686451631  22.2774070140165 21.7799949376723  22.2800258185892 21.7781946877872  Z M 22.4252905646829 21.68340601304  C 22.4226717601103 21.6855736586627  22.4196958352482 21.6877045754825  22.4170373247932 21.6895048253676  C 22.4196561293658 21.6877045754825  22.4223146398208 21.6855736586627  22.4252905646829 21.68340601304  Z M 22.567936506204 21.5858985811121  C 22.5649605813419 21.588029497932  22.5619846564798 21.5898297478171  22.5590087316176 21.5922912956687  C 22.5619449893727 21.5898664766199  22.5649209142348 21.5880662267348  22.567936506204 21.5858985811121  Z M 22.7065748291016 21.4859663301356  C 22.703956024529 21.4878033447266  22.7016149672564 21.4896035946117  22.6989961626838 21.4914773021025  C 22.7016149672564 21.4896035587086  22.703956024529 21.4878033088235  22.7065748291016 21.4859663301356  Z M 22.8429515064913 21.3826172952091  C 22.8406104492188 21.3844542738971  22.8383487649357 21.3862545237822  22.8356902544807 21.388128267176  C 22.8383090590533 21.3862545237822  22.8406104492188 21.3844542738971  22.8429515064913 21.3826172952091  Z M 22.9759951387293 21.2761821073644  C 22.974011162971 21.2780558148552  22.9723446791705 21.2799295582491  22.9700432890051 21.2811419677734  C 22.9723843462776 21.2799295582491  22.9740508688534 21.2780558148552  22.9759951387293 21.2761821073644  Z M 23.1063802605124 21.1676894962086  C 23.1050708582261 21.168901905733  23.1030868824678 21.1704082174862  23.1017774801815 21.1716941205193  C 23.1030868824678 21.1704082174862  23.1050708194508 21.168901905733  23.1063802605124 21.1676894962086  Z M 23.2338291245404 21.0558167940028  C 23.2325197222541 21.0567353012983  23.2315277731503 21.0579844396255  23.2305357852711 21.0591968491498  C 23.2314880672679 21.0579844396255  23.2325197222541 21.0567720301011  23.2338291245404 21.0558167940028  Z M 23.3586195168888 20.9411519129136  C 23.3576275677849 20.9418132108801  23.3566752470129 20.9427317181756  23.3560007123162 20.9435767319623  C 23.3566752470129 20.942364322438  23.3576275677849 20.9417764820772  23.3586195168888 20.9411519129136  Z M 23.7139051154642 20.580440566119  C 23.7145796501608 20.5801466638902  23.7145796501608 20.5798527257583  23.7145796501608 20.5798527257583  C 23.7145796501608 20.5798527257583  23.7145796501608 20.5801466279871  23.7139051154642 20.580440566119  Z M 23.5980027918199 20.7039230167165  C 23.5983599121094 20.7036291144876  23.5986773652918 20.7033352122587  23.598994779699 20.7030780029297  C 23.5986376594095 20.7033719051586  23.5983202450023 20.7039230167165  23.5980027918199 20.7039230167165  Z M 23.4784897144991 20.8249806482652  C 23.4788071676815 20.8243928438074  23.4794817023782 20.8240989056756  23.4801165699678 20.8231803983801  C 23.4794420352711 20.8240989056756  23.4788071676815 20.8243928079044  23.4784897144991 20.8249806482652  Z " fill-rule="nonzero" fill="#ffffff" stroke="none" transform="matrix(1 0 0 1 13 31 )" />
  </g>
</svg>