<?xml version="1.0" encoding="utf-8"?>
<svg version="1.1" xmlns:xlink="http://www.w3.org/1999/xlink" width="10px" height="9px" xmlns="http://www.w3.org/2000/svg">
  <g transform="matrix(1 0 0 1 -385 -45 )">
    <path d="M 8.95442708333333 4.5714111328125  C 8.95464409722222 4.2290771484375  8.87478298611111 3.7927001953125  8.87109375 3.7746826171875  C 8.82703993055556 3.5419921875  8.68967013888889 3.3919189453125  8.52191840277778 3.396533203125  L 8.48784722222222 3.396533203125  C 7.91145833333333 3.396533203125  7.44292534722222 2.921923828125  7.44292534722222 2.338330078125  C 7.44292534722222 2.1456298828125  7.53363715277777 1.9355712890625  7.53363715277777 1.9338134765625  C 7.62261284722222 1.731005859375  7.55425347222222 1.4820556640625  7.37478298611111 1.354833984375  L 7.36501736111111 1.3484619140625  L 6.35937499999999 0.783105468749999  L 6.34960937499999 0.778491210937498  C 6.29036458333333 0.752124023437498  6.22482638888888 0.7393798828125  6.15581597222222 0.7393798828125  C 6.01215277777777 0.7393798828125  5.87217881944444 0.797607421875  5.78059895833333 0.893847656249998  C 5.65755208333333 1.0219482421875  5.27061631944444 1.355712890625  4.95811631944444 1.355712890625  C 4.64301215277777 1.355712890625  4.25347222222222 1.0157958984375  4.13042534722222 0.885717773437499  C 4.03797743055555 0.78662109375  3.89691840277777 0.7283935546875  3.75151909722222 0.7283935546875  C 3.68337673611111 0.7283935546875  3.61957465277777 0.7411376953125  3.56119791666666 0.766625976562499  L 3.5486111111111 0.770361328124999  L 2.50802951388888 1.3493408203125  L 2.49826388888888 1.356591796875  C 2.31770833333333 1.4838134765625  2.24869791666666 1.7321044921875  2.33745659722222 1.9346923828125  C 2.33832465277777 1.9364501953125  2.42816840277777 2.1482666015625  2.42816840277777 2.340087890625  C 2.42816840277777 2.923681640625  1.95963541666666 3.3980712890625  1.38324652777777 3.3980712890625  L 1.34830729166666 3.3980712890625  C 1.18033854166666 3.39345703125  1.04296874999999 3.5435302734375  0.999131944444436 3.776220703125  C 0.995442708333327 3.7953369140625  0.914713541666659 4.2317138671875  0.914713541666659 4.574267578125  C 0.914713541666659 4.917919921875  0.995442708333327 5.3540771484375  0.999131944444436 5.372314453125  C 1.04231770833333 5.6023681640625  1.17599826388888 5.7513427734375  1.34201388888888 5.7513427734375  L 1.38324652777777 5.7513427734375  C 1.95963541666665 5.7513427734375  2.42816840277777 6.225732421875  2.42816840277777 6.809326171875  C 2.42816840277777 7.0020263671875  2.33745659722221 7.2120849609375  2.33745659722221 7.2138427734375  C 2.24848090277777 7.4164306640625  2.31684027777777 7.6656005859375  2.49631076388888 7.792822265625  L 2.50607638888888 7.7991943359375  L 3.49262152777777 8.3581787109375  L 3.50238715277777 8.36279296875  C 3.56163194444444 8.38916015625  3.62630208333333 8.40278320312501  3.69639756944444 8.40278320312501  C 3.84092881944444 8.40278320312501  3.98285590277777 8.3427978515625  4.07443576388888 8.241943359375  C 4.19032118055555 8.11472167968751  4.59244791666666 7.75107421875  4.91471354166666 7.75107421875  C 5.23980034722222 7.75107421875  5.63563368055555 8.111865234375  5.76041666666666 8.2509521484375  C 5.85199652777777 8.353564453125  5.99479166666666 8.41464843750001  6.14019097222222 8.41464843750001  C 6.20833333333333 8.41464843750001  6.27126736111111 8.401904296875  6.33051215277777 8.376416015625  L 6.34136284722222 8.3718017578125  L 7.36219618055555 7.796337890625  L 7.37196180555555 7.7890869140625  C 7.55143229166666 7.661865234375  7.62065972222222 7.4126953125  7.53168402777777 7.210986328125  C 7.53081597222222 7.209228515625  7.44097222222222 6.997412109375  7.44097222222222 6.8055908203125  C 7.44097222222222 6.2219970703125  7.90950520833333 5.747607421875  8.48589409722222 5.747607421875  L 8.52083333333333 5.747607421875  C 8.68880208333333 5.7513427734375  8.826171875 5.6021484375  8.87000868055555 5.3694580078125  C 8.87369791666666 5.351220703125  8.95442708333333 4.9150634765625  8.95442708333333 4.5714111328125  Z M 6.30881076388889 4.567236328125  C 6.30881076388889 5.3444091796875  5.68402777777778 5.977001953125  4.91644965277778 5.977001953125  C 4.14887152777778 5.977001953125  3.52387152777778 5.3444091796875  3.52387152777778 4.567236328125  C 3.52387152777778 3.7900634765625  4.14865451388889 3.157470703125  4.91644965277778 3.157470703125  C 5.68402777777778 3.157470703125  6.30881076388889 3.7900634765625  6.30881076388889 4.567236328125  Z " fill-rule="nonzero" fill="#ffffff" stroke="none" transform="matrix(1 0 0 1 385 45 )" />
  </g>
</svg>